# xmcd
#
# Track frame offsets:
#	332
#	13192
#	27737
#	40107
#	60785
#	73332
#	93187
#	105652
#	117785
#	128307
#	137722
#	148542
#	158122
#	170607
#	184182
#	195095
#	204327
#	212657
#	226705
#	240195
#	254882
#	265935
#	277245
#	285262
#	297502
#	306702
#	316900
#	325947
#	335660
#
# Disc length: 4677 seconds
#
# Revision: 0
# Processed by: cddbd v1.5.2PL0 Copyright (c) Steve Scherf et al.
# Submitted via: audiograbber 1.83.01
#
DISCID=ae12411d
DTITLE=Elvis Presley - Always Elvis - The Album
DYEAR=1997
DGENRE=Rock 'n' Roll
TTITLE0=Moody Blue
TTITLE1=My Boy
TTITLE2=Burning Love
TTITLE3=I Just Can't Help Believin'
TTITLE4=Are You Lonesome Tonight?
TTITLE5=Suspicious Minds
TTITLE6=In The Ghetto
TTITLE7=U.S. Male
TTITLE8=(You're The) Devil In Disguise
TTITLE9=Return To Sender
TTITLE10=Good Luck Charm
TTITLE11=(Marie's The Name) His Latest Flame
TTITLE12=Kiss Me Quick
TTITLE13=Can't Help Falling In Love
TTITLE14=Crying In The Chapel
TTITLE15=Wooden Heart (Muss I Denn)
TTITLE16=Surrender
TTITLE17=Are You Lonesome Tonight?
TTITLE18=Such A Night
TTITLE19=It's Now Or Never
TTITLE20=Jailhouse Rock
TTITLE21=One Night
TTITLE22=(Let Me Be Your) Teddy Bear
TTITLE23=Love Me Tender
TTITLE24=Don't Be Cruel
TTITLE25=Hound Dog
TTITLE26=Blue Suede Shoes
TTITLE27=Heartbreak Hotel
TTITLE28=Bonus Track
EXTD=
EXTT0=
EXTT1=
EXTT2=
EXTT3=
EXTT4=
EXTT5=
EXTT6=
EXTT7=
EXTT8=
EXTT9=
EXTT10=
EXTT11=
EXTT12=
EXTT13=
EXTT14=
EXTT15=
EXTT16=
EXTT17=
EXTT18=
EXTT19=
EXTT20=
EXTT21=
EXTT22=
EXTT23=
EXTT24=
EXTT25=
EXTT26=
EXTT27=
EXTT28=
PLAYORDER=
